<?xml version="1.0" encoding="UTF-8"?>
<svg id="Layer_1" xmlns="http://www.w3.org/2000/svg" version="1.1" viewBox="0 0 1133.86 992.13">
  <!-- Generator: Adobe Illustrator 29.8.2, SVG Export Plug-In . SVG Version: 2.1.1 Build 3)  -->
  <defs>
    <style>
      .st0 {
        fill: #cd352d;
      }
    </style>
  </defs>
  <path class="st0" d="M568.98,648.54c1.98-.92,14.85-17.54,17.29-20.66,65.28-83.84,108.31-194.07,80.8-301-14.43-56.09-53.91-133.55-94.05-175.53-1.67-1.74-4.28-5.07-6.85-4.95-1.62.07-3.71,2.54-4.84,3.71-36.22,37.47-75.68,111.41-90.55,161.27-35.13,117.76,7.69,233.6,82.92,325.04,3.14,3.81,10.13,14.52,15.29,12.12Z"/>
  <path class="st0" d="M407.77,630.62c35.27,12.01,72.32,20.59,109.61,22.82.9-.67.82-1.29.66-2.29-.28-1.77-13.98-18.39-16.34-21.65-46.49-64.37-81.11-138.35-85.26-219.03-.36-7.03,1.72-21.89-1.95-27.11-2.96-4.21-15.52-12.6-20.36-15.96-62.44-43.4-138.37-63.11-213.52-70.19l-3.45,1.4c-.7,1.05-.48,4.63-.4,6.12,1.58,31.18,8.73,65.78,17.21,95.79,32.68,115.77,99.26,191.1,213.8,230.1Z"/>
  <path class="st0" d="M943.28,298.07c-67.05,3.96-152.97,32.46-207.49,71.75-6.52,4.7-18.63,12.89-19.85,21.31-.94,6.51,1.06,17.31.73,24.94-.32,7.48-1.51,16.6-2.53,24.11-10.54,77.95-50.95,150.38-99.03,210.96l.66,2.29c12.56-.08,24.95-1.75,37.3-3.93,65.33-11.55,135.69-38.09,186.28-81.66,66.7-57.44,101.09-145.34,113.66-230.98,1.41-9.63,4.26-25.44,4.17-34.61-.06-6.58-8.98-4.47-13.9-4.18Z"/>
  <path class="st0" d="M323.91,282.65c8.6,4.89,23.53,8.99,33.39,13.42,12.24,5.5,25.26,12.06,36.82,18.86,9.53,5.6,22.19,16.52,30.96,20.69,3.94,1.88,4.57-.01,5.56-3.85,2.07-8.09,2.84-18.1,4.79-26.69,4.76-21,11.83-41.44,20.41-61.13.61-2.14.04-4.03-.98-5.91-1.67-3.11-13.84-12-17.48-14.81-23.87-18.4-52.94-36.72-80.08-49.85-2.94-1.42-13.89-6.97-16.15-6.21-2.06.69-4.43,10.16-5.15,12.64-7.05,24.28-14.51,61.82-15.6,86.91-.24,5.52-1.56,13.04,3.51,15.93Z"/>
  <path class="st0" d="M703.77,334.56c.33,2.26,2.12,2.54,4,1.59,21.18-15.7,43.99-29.29,68.08-40.07,9.01-4.03,19.01-7,27.73-11.01,5.9-2.71,8.41-3.98,9.12-11.05,1.66-16.44-4.85-47.35-8.31-64.31-1.92-9.43-5.74-30.86-9.82-38.61-1.32-2.5-2.48-3.41-5.44-3.07-6.63.76-32.59,15.7-39.9,19.89-20.37,11.68-51.63,31.09-68.06,47.35-2.24,2.22-4.8,4.26-3.87,7.87,12.92,29.09,21.14,60.04,26.47,91.42Z"/>
  <path class="st0" d="M268.48,796.76h-.46c-1.27-15.08-4.53-42.88-7.43-64.05h-30.74v111.36h19.43v-34.69c0-19.19-.56-43.33-.84-56.41h.69c2.33,20.82,7.13,66.75,9.59,91.1h18.17c3.04-23.42,7.96-68.53,10.29-90.81h.58c-.27,13.66-.44,38.1-.44,55.34v35.48h20.62v-111.36h-30.62c-3.42,24.54-7.12,47.93-8.84,64.05Z"/>
  <path class="st0" d="M333.2,732.7l-15.75,111.36h21.84l2.74-26.5h13.88l3.07,26.5h22.28l-16.12-111.36h-31.93ZM343.9,798.67c1.47-13.77,4.12-38.82,4.5-46.59h.84c1.04,10.66,3.26,32.34,4.85,46.59h-10.19Z"/>
  <polygon class="st0" points="426.62 775.56 412.66 775.56 412.66 732.7 391.21 732.7 391.21 844.06 412.66 844.06 412.66 794.45 426.62 794.45 426.62 844.06 448.18 844.06 448.18 732.7 426.62 732.7 426.62 775.56"/>
  <rect class="st0" x="463.86" y="732.7" width="21.39" height="111.36"/>
  <polygon class="st0" points="522.45 732.7 501.01 732.7 501.01 844.06 547.46 844.06 549.38 825.32 522.45 825.32 522.45 732.7"/>
  <path class="st0" d="M571.81,732.7l-15.75,111.36h21.84l2.74-26.5h13.88l3.07,26.5h22.28l-16.12-111.36h-31.93ZM582.52,798.67c1.47-13.77,4.12-38.82,4.5-46.59h.84c1.04,10.66,3.26,32.34,4.85,46.59h-10.19Z"/>
  <polygon class="st0" points="665.24 775.56 651.27 775.56 651.27 732.7 629.83 732.7 629.83 844.06 651.27 844.06 651.27 794.45 665.24 794.45 665.24 844.06 686.8 844.06 686.8 732.7 665.24 732.7 665.24 775.56"/>
  <path class="st0" d="M774.84,777.08h-19.39l-9.41,22.11-8.42-13.09c12.17-9.54,15.58-15.27,15.58-29.21,0-15.43-6.61-25.64-23.34-25.64s-23.63,11.12-23.63,27.39c0,11.62,1.48,16.96,7.28,26.43-10.26,8.66-14.06,15.17-14.06,29.36,0,19.43,8.7,30.97,25.8,30.97,8.9,0,15.43-2.82,21.29-9.91l5.64,8.58h22.74l-17.65-27.43,17.58-39.54ZM730.19,747.74c3.79,0,4.96,3.08,4.96,8.89,0,7.91-1.29,11.58-6.11,16.06-3.44-5.81-3.87-9.46-3.87-16.05,0-5.22,1.22-8.9,5.02-8.9ZM728.68,826.1c-5.55,0-8.7-3.99-8.7-14.28,0-5.65.78-9.35,2.77-12.54l13.92,21.18c-2.13,3.8-4.29,5.64-7.99,5.64Z"/>
  <path class="st0" d="M817.08,816.97c0,7.09-1.37,10.5-6,10.5s-5.83-4.06-5.83-10v-58.89c0-6.31,1.43-9.23,5.84-9.23s5.78,3.1,5.78,9.23v9.5h21.56v-6.99c0-14.57-3.82-30.06-27.34-30.06-17.84,0-27.5,10.21-27.5,29.57v54.6c0,20.47,8.19,30.52,27.05,30.52,25.53,0,28.12-17.94,28.12-31.99v-6.03h-21.67v9.25Z"/>
  <path class="st0" d="M875.13,731.03c-17.15,0-28.96,9.39-28.96,30.89v52.45c0,21.64,9.5,31.35,27.97,31.35,19.47,0,29.87-9.48,29.87-31.57v-51.66c0-22.23-11.62-31.46-28.87-31.46ZM882.23,816.89c0,7.32-2.26,10.57-7.25,10.57s-7.15-3.59-7.15-10.46v-56.92c0-7.39,2.53-10.68,7.09-10.68,5.39,0,7.31,3.56,7.31,10.51v56.98Z"/>
</svg>